<?xml version="1.0" encoding="utf-8"?>
<!-- Generator: Adobe Illustrator 24.3.0, SVG Export Plug-In . SVG Version: 6.00 Build 0)  -->
<svg version="1.1" id="Layer_1" xmlns="http://www.w3.org/2000/svg" xmlns:xlink="http://www.w3.org/1999/xlink" x="0px" y="0px"
	 viewBox="0 0 150 150" enable-background="new 0 0 150 150" xml:space="preserve">
<g>
	<path fill="#EA6A78" d="M113.442,104.228c0,5.04-4.085,9.123-9.123,9.123H87.245c-5.039,0-9.123-4.084-9.123-9.123V85.494
		c0-5.04,4.085-9.123,9.123-9.123h17.074c5.038,0,9.123,4.084,9.123,9.123V104.228z"/>
	<path fill="#23AF92" d="M74.241,101.667c0.704,4.99-2.771,9.605-7.758,10.309l-16.906,2.388c-4.989,0.704-9.605-2.769-10.309-7.759
		l-2.619-18.55c-0.705-4.99,2.769-9.605,7.757-10.309l16.906-2.388c4.988-0.704,9.605,2.769,10.309,7.759L74.241,101.667z"/>
	<path fill="#FFCF00" d="M93.459,66.422c-0.607,5.001-5.154,8.564-10.155,7.958l-16.95-2.056c-5.001-0.606-8.565-5.153-7.959-10.155
		l2.256-18.599c0.607-5.001,5.154-8.564,10.155-7.959l16.95,2.056c5.001,0.607,8.565,5.153,7.959,10.156L93.459,66.422z"/>
	<path fill="#F6A700" d="M89.706,54.995c0,6.988-5.665,12.652-12.651,12.652c-6.988,0-12.652-5.664-12.652-12.652
		c0-6.986,5.664-12.651,12.652-12.651C84.041,42.344,89.706,48.009,89.706,54.995z"/>
	<path fill="#199C80" d="M68.096,95.118c0,6.988-5.665,12.652-12.651,12.652c-6.988,0-12.652-5.664-12.652-12.652
		c0-6.986,5.664-12.65,12.652-12.65C62.431,82.468,68.096,88.132,68.096,95.118z"/>
	<path fill="#D94C52" d="M108.434,94.86c0,6.988-5.665,12.652-12.651,12.652c-6.988,0-12.652-5.664-12.652-12.652
		c0-6.986,5.664-12.65,12.652-12.65C102.769,82.21,108.434,87.874,108.434,94.86z"/>
	<path fill="#FFFFFF" d="M73.678,57.46l-2.247,5.015l-2.204-0.227l7.306-15.925l2.57,0.264l3.934,17.08l-2.279-0.233l-1.228-5.373
		L73.678,57.46z M79.263,56.352l-1.131-4.915c-0.254-1.115-0.399-2.12-0.545-3.1l-0.051-0.004c-0.346,0.952-0.715,1.929-1.138,2.9
		l-2.109,4.608L79.263,56.352z"/>
	<path fill="#FFFFFF" d="M49.077,87.263c0.935-0.352,2.436-0.742,3.987-0.982c2.214-0.342,3.699-0.181,4.899,0.518
		c0.996,0.524,1.685,1.459,1.894,2.807c0.256,1.655-0.612,3.274-2.318,4.213l0.007,0.051c1.691,0.155,3.809,1.208,4.202,3.753
		c0.228,1.475-0.183,2.685-0.919,3.659c-1.026,1.279-2.881,2.086-5.68,2.519c-1.526,0.237-2.712,0.315-3.465,0.327L49.077,87.263z
		 M52.376,93.942l2.008-0.311c2.342-0.361,3.527-1.795,3.27-3.45c-0.311-2.008-1.959-2.561-4.199-2.214
		c-1.016,0.155-1.59,0.324-1.932,0.454L52.376,93.942z M53.646,102.159c0.443,0.008,1.085-0.063,1.874-0.186
		c2.288-0.354,4.268-1.521,3.883-4.012c-0.362-2.342-2.521-2.997-4.938-2.623l-1.828,0.282L53.646,102.159z"/>
	<g>
		<path fill="#FFFFFF" d="M100.489,103.457c-0.845,0.373-2.513,0.705-4.628,0.605c-4.896-0.235-8.433-3.505-8.159-9.202
			c0.262-5.439,4.123-8.948,9.51-8.689c2.164,0.105,3.509,0.634,4.086,0.972l-0.631,1.806c-0.83-0.455-2.025-0.823-3.468-0.891
			c-4.073-0.196-6.905,2.276-7.124,6.84c-0.206,4.253,2.113,7.101,6.34,7.305c1.364,0.065,2.771-0.149,3.694-0.546L100.489,103.457z
			"/>
	</g>
</g>
</svg>
